<?xml version="1.0" standalone="yes"?>
<svg id="Layer_1" data-name="Layer 1" xmlns="http://www.w3.org/2000/svg" viewBox="0 0 138.81 62.04">
<defs><style>.cls-1{fill:#fff;}</style></defs>
<title>ElysysLogo-Light</title>
<path class="cls-1" d="M25.65,24.66H12l-1.66,9.56H26.39l-1,5.91H2.09L8.3,4.44H31.51l-1.05,6h-16L13,18.9H26.68Z" transform="translate(-2.09 -2.48)"/>
<path class="cls-1" d="M36.58,40.13h-7L36.17,2.48H43.1Z" transform="translate(-2.09 -2.48)"/>
<path class="cls-1" d="M53.69,30l7.58-16.42H69L53.45,44.13a13.3,13.3,0,0,1-3.91,5.14,8.55,8.55,0,0,1-5.19,1.65A16,16,0,0,1,41,50.4L41.53,45l1,.05a5.18,5.18,0,0,0,4.95-2.48L49,39.76,44.62,13.61h7.16Z" transform="translate(-2.09 -2.48)"/>
<path class="cls-1" d="M82.49,32.65c.26-1.3-.64-2.25-2.72-2.84l-2.23-.56q-7.92-2.19-7.7-7.7a7.64,7.64,0,0,1,3.33-6.12,12.41,12.41,0,0,1,7.7-2.31,11,11,0,0,1,7.26,2.38A7.81,7.81,0,0,1,91,21.7l-6.86,0q0-3.41-3.39-3.45a4.83,4.83,0,0,0-2.8.81,3.27,3.27,0,0,0-1.46,2.18c-.25,1.3.74,2.23,3,2.77l1,.22a19.65,19.65,0,0,1,5.18,1.85,7.7,7.7,0,0,1,2.75,2.58,6.39,6.39,0,0,1,.9,3.71,7.06,7.06,0,0,1-1.63,4.41,9.9,9.9,0,0,1-4.27,2.91,14.74,14.74,0,0,1-5.7,1,11.17,11.17,0,0,1-7.35-2.54,8.15,8.15,0,0,1-3-6.43l6.52.05c.07,2.53,1.42,3.81,4.07,3.85A5.75,5.75,0,0,0,81,34.76,3.08,3.08,0,0,0,82.49,32.65Z" transform="translate(-2.09 -2.48)"/>
<path class="cls-1" d="M103.65,30l7.57-16.42h7.7L103.4,44.13a13.2,13.2,0,0,1-3.91,5.14,8.49,8.49,0,0,1-5.18,1.65A16.18,16.18,0,0,1,91,50.4L91.49,45l1,.05a5.19,5.19,0,0,0,5-2.48l1.52-2.82L94.58,13.61h7.15Z" transform="translate(-2.09 -2.48)"/>
<path class="cls-1" d="M132.45,32.65q.39-1.95-2.72-2.84l-2.23-.56q-7.92-2.19-7.7-7.7a7.63,7.63,0,0,1,3.32-6.12,12.42,12.42,0,0,1,7.71-2.31,11.06,11.06,0,0,1,7.26,2.38,7.87,7.87,0,0,1,2.82,6.2l-6.87,0c0-2.27-1.09-3.42-3.38-3.45a4.86,4.86,0,0,0-2.81.81,3.31,3.31,0,0,0-1.46,2.18c-.24,1.3.75,2.23,3,2.77l1,.22a19.43,19.43,0,0,1,5.17,1.85,7.82,7.82,0,0,1,2.76,2.58,6.46,6.46,0,0,1,.89,3.71,7.06,7.06,0,0,1-1.63,4.41,9.87,9.87,0,0,1-4.26,2.91,14.8,14.8,0,0,1-5.7,1,11.17,11.17,0,0,1-7.35-2.54,8.15,8.15,0,0,1-3-6.43l6.52.05q.09,3.79,4.07,3.85a5.69,5.69,0,0,0,3.14-.79A3.1,3.1,0,0,0,132.45,32.65Z" transform="translate(-2.09 -2.48)"/>
<path class="cls-1" d="M11.49,55.1H5.77v5.74h-1V48.57h7.6v.88H5.77v4.77h5.72Z" transform="translate(-2.09 -2.48)"/>
<path class="cls-1" d="M14.15,49.09a.68.68,0,0,1,.18-.48.75.75,0,0,1,1,0,.7.7,0,0,1,0,1,.78.78,0,0,1-1,0A.68.68,0,0,1,14.15,49.09Zm1.19,11.75h-1V51.72h1Z" transform="translate(-2.09 -2.48)"/>
<path class="cls-1" d="M19,51.72l0,1.56A3.57,3.57,0,0,1,20.35,52,3.29,3.29,0,0,1,22,51.55a2.76,2.76,0,0,1,2.19.83A3.8,3.8,0,0,1,25,54.86v6H24v-6A2.8,2.8,0,0,0,23.43,53a2,2,0,0,0-1.63-.6,2.57,2.57,0,0,0-1.66.58,3.49,3.49,0,0,0-1.06,1.58v6.25h-1V51.72Z" transform="translate(-2.09 -2.48)"/>
<path class="cls-1" d="M33.31,60.84a4.87,4.87,0,0,1-.2-1.27,3.46,3.46,0,0,1-1.35,1.06A4.09,4.09,0,0,1,30,61a3,3,0,0,1-2.12-.74,2.36,2.36,0,0,1-.82-1.85,2.45,2.45,0,0,1,1.11-2.11,5.39,5.39,0,0,1,3.09-.77h1.83v-1A2,2,0,0,0,32.5,53a2.48,2.48,0,0,0-1.75-.56,2.77,2.77,0,0,0-1.75.54,1.6,1.6,0,0,0-.69,1.3h-1a2.35,2.35,0,0,1,1-1.88,3.91,3.91,0,0,1,2.49-.8,3.53,3.53,0,0,1,2.4.77,2.71,2.71,0,0,1,.91,2.12v4.32a5.26,5.26,0,0,0,.28,2v.1Zm-3.17-.73A3.45,3.45,0,0,0,32,59.63a3,3,0,0,0,1.16-1.31v-2H31.3a4.49,4.49,0,0,0-2.36.56,1.65,1.65,0,0,0-.85,1.47,1.63,1.63,0,0,0,.57,1.27A2.17,2.17,0,0,0,30.14,60.11Z" transform="translate(-2.09 -2.48)"/>
<path class="cls-1" d="M37.76,51.72l0,1.56A3.57,3.57,0,0,1,39.07,52a3.3,3.3,0,0,1,1.7-.45,2.75,2.75,0,0,1,2.18.83,3.69,3.69,0,0,1,.72,2.48v6h-1v-6A2.8,2.8,0,0,0,42.15,53a2,2,0,0,0-1.63-.6,2.54,2.54,0,0,0-1.65.58,3.5,3.5,0,0,0-1.07,1.58v6.25h-1V51.72Z" transform="translate(-2.09 -2.48)"/>
<path class="cls-1" d="M49.65,60.16a2.63,2.63,0,0,0,1.76-.6A2.07,2.07,0,0,0,52.18,58h1a2.9,2.9,0,0,1-.52,1.53,3.36,3.36,0,0,1-1.28,1.07,3.82,3.82,0,0,1-1.7.39,3.54,3.54,0,0,1-2.85-1.25,5,5,0,0,1-1-3.35V56.1a5.59,5.59,0,0,1,.48-2.38,3.55,3.55,0,0,1,1.35-1.6,3.68,3.68,0,0,1,2.06-.57,3.49,3.49,0,0,1,2.47.9,3.22,3.22,0,0,1,1,2.35h-1a2.45,2.45,0,0,0-.77-1.73,2.74,2.74,0,0,0-3.89.33,4.46,4.46,0,0,0-.76,2.76v.3a4.38,4.38,0,0,0,.76,2.72A2.53,2.53,0,0,0,49.65,60.16Z" transform="translate(-2.09 -2.48)"/>
<path class="cls-1" d="M55.11,49.09a.65.65,0,0,1,.69-.68.69.69,0,0,1,.51,1.16.73.73,0,0,1-.51.19.71.71,0,0,1-.51-.19A.68.68,0,0,1,55.11,49.09Zm1.18,11.75h-1V51.72h1Z" transform="translate(-2.09 -2.48)"/>
<path class="cls-1" d="M64.79,60.84a4.87,4.87,0,0,1-.2-1.27,3.46,3.46,0,0,1-1.35,1.06A4.16,4.16,0,0,1,61.5,61a3.08,3.08,0,0,1-2.13-.74,2.38,2.38,0,0,1-.81-1.85,2.45,2.45,0,0,1,1.11-2.11,5.39,5.39,0,0,1,3.09-.77h1.83v-1A2,2,0,0,0,64,53a2.48,2.48,0,0,0-1.75-.56,2.75,2.75,0,0,0-1.75.54,1.6,1.6,0,0,0-.69,1.3h-1a2.35,2.35,0,0,1,1-1.88,3.91,3.91,0,0,1,2.49-.8,3.53,3.53,0,0,1,2.4.77,2.71,2.71,0,0,1,.91,2.12v4.32a5.26,5.26,0,0,0,.28,2v.1Zm-3.17-.73a3.45,3.45,0,0,0,1.81-.48,3,3,0,0,0,1.16-1.31v-2H62.78a4.49,4.49,0,0,0-2.36.56,1.65,1.65,0,0,0-.85,1.47,1.63,1.63,0,0,0,.57,1.27A2.17,2.17,0,0,0,61.62,60.11Z" transform="translate(-2.09 -2.48)"/>
<path class="cls-1" d="M69.41,60.84h-1V47.9h1Z" transform="translate(-2.09 -2.48)"/>
<path class="cls-1" d="M83.52,57.82a2,2,0,0,0-.72-1.61,7.56,7.56,0,0,0-2.62-1.13,9.35,9.35,0,0,1-2.78-1.17,2.83,2.83,0,0,1-.09-4.63,4.8,4.8,0,0,1,3-.88,5,5,0,0,1,2.19.47A3.71,3.71,0,0,1,84,50.19a3.49,3.49,0,0,1,.53,1.88h-1a2.57,2.57,0,0,0-.86-2,3.33,3.33,0,0,0-2.31-.76,3.65,3.65,0,0,0-2.24.63,2,2,0,0,0-.83,1.64A1.88,1.88,0,0,0,78,53.08a7,7,0,0,0,2.4,1,11.47,11.47,0,0,1,2.5.93,3.55,3.55,0,0,1,1.28,1.16,2.87,2.87,0,0,1,.43,1.59,2.77,2.77,0,0,1-1.15,2.33,4.94,4.94,0,0,1-3.06.88A6,6,0,0,1,78,60.54a3.65,3.65,0,0,1-1.64-1.29,3.33,3.33,0,0,1-.56-1.92h1a2.46,2.46,0,0,0,1,2.05,4.12,4.12,0,0,0,2.58.75,3.82,3.82,0,0,0,2.3-.63A2,2,0,0,0,83.52,57.82Z" transform="translate(-2.09 -2.48)"/>
<path class="cls-1" d="M89.45,59.39l2.66-7.67H93.2L89.31,62.39l-.2.47a2.45,2.45,0,0,1-2.32,1.66A2.85,2.85,0,0,1,86,64.4v-.83l.53,0a1.85,1.85,0,0,0,1.2-.37A2.84,2.84,0,0,0,88.51,62L89,60.76l-3.43-9h1.1Z" transform="translate(-2.09 -2.48)"/>
<path class="cls-1" d="M100.22,58.52a1.43,1.43,0,0,0-.6-1.2,4.74,4.74,0,0,0-1.82-.72A7.61,7.61,0,0,1,95.92,56a2.51,2.51,0,0,1-1-.81A2.08,2.08,0,0,1,94.6,54a2.17,2.17,0,0,1,.9-1.78,3.64,3.64,0,0,1,2.31-.71,3.74,3.74,0,0,1,2.45.76,2.43,2.43,0,0,1,.92,2h-1a1.63,1.63,0,0,0-.67-1.33,3,3,0,0,0-3.29-.09,1.38,1.38,0,0,0-.6,1.16,1.25,1.25,0,0,0,.5,1.05,5.35,5.35,0,0,0,1.83.69,9.13,9.13,0,0,1,2,.66,2.53,2.53,0,0,1,1,.86,2.34,2.34,0,0,1-.61,3,4,4,0,0,1-2.43.69,4.15,4.15,0,0,1-2.59-.77,2.39,2.39,0,0,1-1-2h1a1.73,1.73,0,0,0,.74,1.37,3,3,0,0,0,1.82.5,2.85,2.85,0,0,0,1.7-.47A1.4,1.4,0,0,0,100.22,58.52Z" transform="translate(-2.09 -2.48)"/>
<path class="cls-1" d="M105.06,49.39v2.33H107v.83h-1.89v6.08a1.84,1.84,0,0,0,.28,1.13,1,1,0,0,0,.91.37,7.42,7.42,0,0,0,.82-.08l0,.81A3.11,3.11,0,0,1,106,61a1.79,1.79,0,0,1-1.51-.61,2.85,2.85,0,0,1-.47-1.77V52.55h-1.68v-.83h1.68V49.39Z" transform="translate(-2.09 -2.48)"/>
<path class="cls-1" d="M112.57,61a3.86,3.86,0,0,1-2.1-.58A3.81,3.81,0,0,1,109,58.84a5,5,0,0,1-.53-2.3v-.36a5.35,5.35,0,0,1,.51-2.37,4.09,4.09,0,0,1,1.42-1.65,3.47,3.47,0,0,1,2-.61A3.29,3.29,0,0,1,115,52.69a4.56,4.56,0,0,1,1,3.09v.57h-6.5v.19a3.77,3.77,0,0,0,.89,2.58,2.81,2.81,0,0,0,2.23,1,3.23,3.23,0,0,0,1.43-.3,3.28,3.28,0,0,0,1.13-.94l.63.48A3.69,3.69,0,0,1,112.57,61Zm-.19-8.6a2.51,2.51,0,0,0-1.91.84,3.81,3.81,0,0,0-1,2.24H115v-.11a3.36,3.36,0,0,0-.75-2.14A2.33,2.33,0,0,0,112.38,52.41Z" transform="translate(-2.09 -2.48)"/>
<path class="cls-1" d="M118.87,51.72l0,1.48A3.23,3.23,0,0,1,120.17,52a3.44,3.44,0,0,1,1.69-.42,2.55,2.55,0,0,1,2.73,1.77A3.58,3.58,0,0,1,125.9,52a3.71,3.71,0,0,1,1.8-.46q2.94,0,3,3.2v6.09h-1v-6a2.71,2.71,0,0,0-.52-1.81,2.16,2.16,0,0,0-1.69-.59,2.71,2.71,0,0,0-1.84.7,2.47,2.47,0,0,0-.83,1.67v6h-1V54.75a2.45,2.45,0,0,0-.56-1.74,2.17,2.17,0,0,0-1.67-.58,2.54,2.54,0,0,0-1.63.54,3.12,3.12,0,0,0-1,1.62v6.25h-1V51.72Z" transform="translate(-2.09 -2.48)"/>
<path class="cls-1" d="M138.71,58.52a1.43,1.43,0,0,0-.6-1.2,4.74,4.74,0,0,0-1.82-.72,7.61,7.61,0,0,1-1.88-.59,2.51,2.51,0,0,1-1-.81,2.08,2.08,0,0,1-.32-1.16,2.17,2.17,0,0,1,.9-1.78,3.64,3.64,0,0,1,2.31-.71,3.74,3.74,0,0,1,2.45.76,2.43,2.43,0,0,1,.92,2h-1a1.66,1.66,0,0,0-.67-1.33,3,3,0,0,0-3.29-.09,1.38,1.38,0,0,0-.6,1.16,1.25,1.25,0,0,0,.5,1.05,5.27,5.27,0,0,0,1.83.69,9.13,9.13,0,0,1,2,.66,2.53,2.53,0,0,1,1,.86,2.34,2.34,0,0,1-.61,3,4,4,0,0,1-2.43.69,4.13,4.13,0,0,1-2.59-.77,2.39,2.39,0,0,1-1-2h1a1.7,1.7,0,0,0,.74,1.37,3,3,0,0,0,1.82.5,2.85,2.85,0,0,0,1.7-.47A1.4,1.4,0,0,0,138.71,58.52Z" transform="translate(-2.09 -2.48)"/>
</svg>